<?xml version="1.0" encoding="utf-8"?>
<!-- Generator: Adobe Illustrator 16.0.0, SVG Export Plug-In . SVG Version: 6.00 Build 0)  -->
<!DOCTYPE svg PUBLIC "-//W3C//DTD SVG 1.1//EN" "http://www.w3.org/Graphics/SVG/1.1/DTD/svg11.dtd">
<svg version="1.1" id="Layer_1" xmlns="http://www.w3.org/2000/svg" xmlns:xlink="http://www.w3.org/1999/xlink" x="0px" y="0px"
	 width="178.6px" height="27.4px" viewBox="29.8 22.2 178.6 27.4" enable-background="new 29.8 22.2 178.6 27.4"
	 xml:space="preserve">
<path fill="#005BBF" d="M131.4,26.85c-5.699,0-9.6,3.899-9.6,9.399v0.3c0,5.5,3.9,9.301,9.6,9.301c5.7,0,9.601-3.9,9.601-9.4v-0.3
	C141,30.65,137.1,26.85,131.4,26.85"/>
<g>
	<path fill="#231F20" d="M150.5,28.75c-2,0-3.5,1-4.4,2.101V29.25c0-0.1-0.1-0.2-0.2-0.2h-4c-0.1,0-0.199,0.101-0.199,0.2v18
		c0,0.101,0.1,0.3,0.199,0.3h4c0.101,0,0.2-0.1,0.2-0.3v-5c1,1.2,2.5,1.9,4.4,1.9c4,0,6.6-3,6.6-7.7v-0.2
		C157,31.75,154.4,28.75,150.5,28.75z M152.5,36.65c0,1.899-0.601,4.1-3.2,4.1c-2.1,0-3.3-1.399-3.3-4.1v-0.2c0-2.6,1.2-4.1,3.3-4.1
		c2,0,3.2,1.5,3.2,4.1V36.65z"/>
	<path fill="#231F20" d="M53.9,28.75c-4.5,0-7.699,3.2-7.699,7.8v0.2c0,4.601,3.1,7.601,7.8,7.601c4.1,0,6.7-1.9,7.2-5.101
		c0-0.1,0-0.1-0.101-0.2c0-0.1-0.1-0.1-0.2-0.1h-3.8c-0.1,0-0.2,0.1-0.2,0.2c-0.199,1.2-1.199,1.8-2.8,1.8c-2,0-3.2-1.2-3.3-3.3H61
		c0.1,0,0.2-0.101,0.2-0.2v-1.1C61.2,30.75,57.4,28.75,53.9,28.75z M50.6,34.75c0.4-1.7,1.4-2.7,3-2.7c1.8,0,2.7,0.9,2.9,2.7H50.6z"
		/>
	<path fill="#231F20" d="M99.4,28.85c-2,0-3.399,0.8-4.399,2.3v-1.9c0-0.1-0.101-0.2-0.2-0.2h-4c-0.1,0-0.2,0.101-0.2,0.2v14.5
		c0,0.101,0.101,0.2,0.2,0.2h4c0.1,0,0.2-0.1,0.2-0.2v-7.3c0-2.4,1.3-3.5,4.3-3.5h0.1c0.101,0,0.101,0,0.2-0.1
		c0,0,0.101-0.101,0.101-0.2v-3.7c0-0.1,0-0.1-0.101-0.2C99.6,28.85,99.5,28.85,99.4,28.85z"/>
	<path fill="#231F20" d="M107.7,28.75c-4.101,0-6.5,1.9-6.801,5.2c0,0.1,0,0.1,0.101,0.2c0,0,0.1,0.1,0.2,0.1h3.8
		c0.1,0,0.2-0.1,0.2-0.2c0.199-1.199,0.899-1.8,2.199-1.8c1.5,0,2.101,0.601,2.101,2.4v0.3h-1.4c-3.5,0-7.8,0.9-7.8,4.9
		c0,2.899,1.9,4.6,5.1,4.6c1.801,0,3.101-0.5,4.101-1.6v1.1c0,0.1,0.1,0.2,0.2,0.2h3.899c0.101,0,0.2-0.101,0.2-0.2v-9.4
		C114,30.65,111.9,28.75,107.7,28.75z M109.6,38.75c0,1.4-1.2,2.3-2.899,2.3c-1.2,0-1.9-0.5-1.9-1.5c0-1.3,1-1.8,3.4-1.8h1.3v1
		H109.6z"/>
	<path fill="#231F20" d="M121,26.15h-4c-0.101,0-0.2,0.1-0.2,0.2V43.75c0,0.101,0.1,0.2,0.2,0.2h4c0.1,0,0.2-0.1,0.2-0.2v-17.3
		C121.2,26.25,121.1,26.15,121,26.15z"/>
	<path fill="#231F20" d="M166.7,28.75c-4.601,0-7.9,3.2-7.9,7.7v0.2c0,4.5,3.2,7.6,7.9,7.6c4.6,0,7.899-3.2,7.899-7.7V36.35
		C174.6,31.85,171.3,28.75,166.7,28.75z M170,36.65c0,2.6-1.2,4.2-3.3,4.2c-2.101,0-3.301-1.5-3.301-4.2v-0.2
		c0-2.6,1.2-4.1,3.301-4.1c2.1,0,3.3,1.5,3.3,4.199V36.65z"/>
	<path fill="#231F20" d="M178.6,24.05c-1.3,0-2.3,1-2.3,2.2s1,2.2,2.3,2.2s2.3-0.9,2.3-2.2S179.9,24.05,178.6,24.05z"/>
	<path fill="#231F20" d="M180.6,29.05h-4c-0.1,0-0.2,0.101-0.2,0.2v14.5c0,0.101,0.101,0.2,0.2,0.2h4c0.101,0,0.2-0.1,0.2-0.2v-14.5
		C180.9,29.15,180.7,29.05,180.6,29.05z"/>
	<path fill="#231F20" d="M44.4,38.05h-3.6c-0.1,0-0.2,0.101-0.2,0.2c-0.2,1.601-1.2,2.601-2.899,2.601c-2.7,0-3.301-2.301-3.301-4.2
		v-0.2c0-2.5,1.2-4.1,3.2-4.1c1.601,0,2.4,0.699,2.7,2.3c0,0.1,0.1,0.2,0.2,0.2h3.8l0,0c0.1,0,0.2-0.101,0.2-0.2c0,0,0,0,0-0.101
		c-0.3-3.699-2.9-5.8-7-5.8c-4.5,0-7.7,3.2-7.7,7.8v0.2c0,4.601,3,7.601,7.7,7.601c4.2,0,6.899-2.301,7.2-6
		c0-0.101,0-0.101-0.101-0.2C44.5,38.05,44.4,38.05,44.4,38.05z"/>
	<path fill="#231F20" d="M72,28.75c-1.9,0-3.5,0.7-4.5,2v-1.5c0-0.1-0.101-0.2-0.2-0.2h-4c-0.1,0-0.2,0.101-0.2,0.2v14.5
		c0,0.101,0.101,0.2,0.2,0.2h4c0.1,0,0.2-0.1,0.2-0.2V35.35c0-1.801,1-2.9,2.8-2.9c1.6,0,2.3,0.8,2.3,2.7v8.6
		c0,0.101,0.101,0.2,0.2,0.2h4c0.1,0,0.2-0.1,0.2-0.2v-9.2C77.1,30.85,75.2,28.75,72,28.75z"/>
	<path fill="#231F20" d="M208.1,32.35c0.101,0,0.2-0.101,0.2-0.2v-2.9c0-0.1-0.1-0.2-0.2-0.2H205.2v-2.6c0-0.1-0.101-0.2-0.2-0.2h-4
		c-0.101,0-0.2,0.101-0.2,0.2v2.6h-1.2c-0.1,0-0.2,0.101-0.2,0.2v2.8c0,0.101,0.101,0.2,0.2,0.2h1.2v7.101c0,3.1,1.7,4.8,4.9,4.8
		c0.899,0,1.8-0.101,2.5-0.4c0.1,0,0.199-0.1,0.199-0.2v-3.1c0-0.1,0-0.2-0.1-0.2s-0.2-0.1-0.2,0c-0.399,0.2-0.899,0.3-1.399,0.3
		c-0.9,0-1.4-0.5-1.4-1.5V32.35H208.1z"/>
	<path fill="#231F20" d="M87.6,29.05H84.7v-2.6c0-0.1-0.101-0.2-0.2-0.2h-4c-0.101,0-0.2,0.101-0.2,0.2v2.6H79
		c-0.101,0-0.2,0.101-0.2,0.2v2.8c0,0.101,0.1,0.2,0.2,0.2h1.2v7.101c0,3.1,1.699,4.8,4.899,4.8c0.9,0,1.8-0.101,2.5-0.4
		c0.101,0,0.2-0.1,0.2-0.2v-3.1c0-0.1,0-0.2-0.1-0.2c-0.101,0-0.2-0.1-0.2,0c-0.4,0.2-0.9,0.3-1.4,0.3c-0.899,0-1.399-0.5-1.399-1.5
		V32.35H87.6c0.101,0,0.2-0.101,0.2-0.2v-2.9C87.9,29.15,87.7,29.05,87.6,29.05z"/>
	<path fill="#231F20" d="M192.6,28.75c-1.899,0-3.5,0.7-4.5,2v-1.5c0-0.1-0.1-0.2-0.2-0.2h-4c-0.1,0-0.199,0.101-0.199,0.2v14.5
		c0,0.101,0.1,0.2,0.199,0.2h4c0.101,0,0.2-0.1,0.2-0.2V35.35c0-1.801,1-2.9,2.8-2.9c1.601,0,2.301,0.8,2.301,2.7v8.6
		c0,0.101,0.1,0.2,0.199,0.2h4c0.101,0,0.2-0.1,0.2-0.2v-9.2C197.7,30.85,195.8,28.75,192.6,28.75z"/>
</g>
</svg>
